<?xml version="1.0" encoding="utf-8"?>
<!-- Generator: Adobe Illustrator 24.0.2, SVG Export Plug-In . SVG Version: 6.00 Build 0)  -->
<svg version="1.1" id="Capa_1" xmlns="http://www.w3.org/2000/svg" xmlns:xlink="http://www.w3.org/1999/xlink" x="0px" y="0px"
	 viewBox="0 0 29.2 29.2" style="enable-background:new 0 0 29.2 29.2;" xml:space="preserve">
<style type="text/css">
	.st0{fill:#61B1E5;}
</style>
<title>instagram</title>
<path class="st0" d="M19.2,9.1c-0.6,0-1,0.4-1,1s0.4,1,1,1s1-0.4,1-1S19.7,9.1,19.2,9.1z"/>
<path class="st0" d="M14.7,10.4c-2.3,0-4.2,1.9-4.2,4.2s1.9,4.2,4.2,4.2s4.2-1.9,4.2-4.2S17,10.4,14.7,10.4L14.7,10.4z M14.7,17.3
	c-1.5,0-2.7-1.2-2.7-2.7s1.2-2.7,2.7-2.7s2.7,1.2,2.7,2.7S16.2,17.3,14.7,17.3L14.7,17.3z"/>
<path class="st0" d="M18,23.2h-6.8C8.4,23.2,6,20.9,6,18c0,0,0,0,0,0v-6.8c0-2.8,2.3-5.1,5.1-5.1H18c2.8,0,5.1,2.3,5.1,5.2V18
	C23.2,20.8,20.9,23.2,18,23.2C18,23.2,18,23.2,18,23.2z M11.2,7.7c-2,0-3.5,1.6-3.5,3.5V18c0,2,1.6,3.5,3.5,3.5H18
	c2,0,3.6-1.6,3.6-3.5c0,0,0,0,0,0v-6.8c0-2-1.6-3.5-3.6-3.5c0,0,0,0,0,0H11.2z"/>
</svg>
