<svg xmlns="http://www.w3.org/2000/svg" viewBox="0 0 150.76 160.1"><defs><style>.cls-1{fill:#fff;}.cls-1,.cls-4{stroke:#000;}.cls-1,.cls-10,.cls-4,.cls-5,.cls-6,.cls-7,.cls-9{stroke-miterlimit:10;}.cls-1,.cls-10,.cls-5,.cls-6,.cls-7{stroke-width:0.75px;}.cls-1,.cls-10,.cls-2,.cls-3,.cls-4,.cls-5,.cls-7{fill-rule:evenodd;}.cls-2{fill:#233669;}.cls-3{fill:#9fd5f3;}.cls-4,.cls-6,.cls-7,.cls-9{fill:none;}.cls-4{stroke-width:0.5px;}.cls-5{fill:#9a9970;}.cls-10,.cls-5,.cls-6,.cls-7,.cls-9{stroke:#1d1d1b;}.cls-8{fill:#1d1d1b;}.cls-9{stroke-width:0.22px;}.cls-10{fill:#a65c45;}</style></defs><title>logo-banco-mobile</title><g id="Capa_2" data-name="Capa 2"><g id="Capa_1-2" data-name="Capa 1"><path class="cls-1" d="M26.85,40.49,26.76,123c0,28.52,47.9,30.94,47.84,37.14.11-6.22,49.78-8.59,49.11-37.16l0-82.45L79.9,25.7Z"/><path class="cls-2" d="M67,59.91l15.8,0-.07,82.58c-4.47,1.46-7.65,2.49-7.6,3.76,0-1.45-3.4-2.39-8.19-3.87Z"/><path class="cls-3" d="M95.23,60l15.88,0L111,119.83c-1.62,9.08-8.48,14.45-15.75,18Z"/><path class="cls-3" d="M39.16,59.87l14.29,0v77c-6.35-3.56-12.12-9-14.09-17.83Z"/><path class="cls-4" d="M39.07,59.82l72.13.09-.13,60.14c-3.79,20.74-36.16,22.13-36,26.22.13-4.32-30.68-4.14-35.78-27Z"/><path class="cls-5" d="M111.8,17.56l-73.16-.41,0,2.78L.45,19.66c-.38,2,.63,3.69,3.34,5A4.33,4.33,0,0,0,7,29.53a5.06,5.06,0,0,0,4.4,4.85c1.68,2.78,4.59,3.83,8.3,3.72,2.15,5.28,20.18,8,45.47,9.64l4.74-5.91L80,41.7l5,5.77c27.41-1.63,43.58-4.54,45.13-9.11,6.28-.47,8.92-1.87,9.15-4.31,2.46-.72,4-2.08,3.53-4.81,2.84-1.19,4.19-2.73,3.34-4.75,2.66-1.18,4.16-2.77,4.22-4.87H112.18Z"/><line class="cls-6" x1="4.17" y1="24.58" x2="33.07" y2="24.58"/><line class="cls-6" x1="6.85" y1="29.35" x2="38.26" y2="29.35"/><line class="cls-6" x1="11.21" y1="34.2" x2="42.63" y2="34.2"/><line class="cls-6" x1="19.56" y1="38.34" x2="50.95" y2="38.36"/><line class="cls-6" x1="117.75" y1="24.65" x2="146.64" y2="24.65"/><line class="cls-6" x1="111.74" y1="29.28" x2="143.15" y2="29.28"/><line class="cls-6" x1="107.96" y1="34.14" x2="139.35" y2="34.14"/><line class="cls-6" x1="99.59" y1="38.07" x2="130.98" y2="38.07"/><line class="cls-6" x1="41.71" y1="22.46" x2="108.43" y2="22.46"/><line class="cls-6" x1="44.72" y1="27.63" x2="104.48" y2="27.63"/><line class="cls-6" x1="48.8" y1="32.01" x2="101.76" y2="32.01"/><line class="cls-6" x1="53.28" y1="35.72" x2="96.41" y2="35.72"/><path class="cls-7" d="M38.64,18.07a4.78,4.78,0,0,0,3.07,4.28c-.34,2,.74,3.71,3.24,5a6,6,0,0,0,4.23,5A6,6,0,0,0,54.06,36c1.83,3.47,8.23,4.95,15.64,5.51a74.38,74.38,0,0,0,10.45,0c8-.6,14.9-2.35,16.26-5.46,2.73-.76,4.39-1.92,4.52-3.67,2.93-1.18,4.45-2.75,3.94-4.88,2.62-1,4.52-2.32,3.87-4.74a5.89,5.89,0,0,0,3.18-4.59"/><path class="cls-8" d="M53.81,49.53h.25a11.29,11.29,0,0,1,1.86.11,2,2,0,0,1,1.11.63,1.44,1.44,0,0,1,.41,1,1.83,1.83,0,0,1-.32,1,2.68,2.68,0,0,1-.94.8,8.41,8.41,0,0,1-1.94.59,4,4,0,0,1,1.88.89,1.75,1.75,0,0,1,.53,1.25,2.2,2.2,0,0,1-.53,1.35,3,3,0,0,1-1.37,1c-.22.06-.53.13-.94.2V57a2.67,2.67,0,0,0,.58-1.7,1.19,1.19,0,0,0-.24-.78,1.22,1.22,0,0,0-.34-.34v-1l.16-.07a2,2,0,0,0,.89-.87,2.33,2.33,0,0,0,.36-1.16,1.1,1.1,0,0,0-.36-.83,1.44,1.44,0,0,0-.94-.31l-.11,0Zm-3.6,0h3.6V50h-.29l-1.09,3.44a4.11,4.11,0,0,0,1.38-.22v1a1.66,1.66,0,0,0-.27-.13,4.39,4.39,0,0,0-1.29-.13L51,57.87a4.23,4.23,0,0,0,.54,0,2.62,2.62,0,0,0,2.24-.83,0,0,0,0,0,0,0V58.3a19,19,0,0,1-2.19.09H47.55l.09-.23a2.44,2.44,0,0,0,.85-.11.66.66,0,0,0,.4-.31,3.78,3.78,0,0,0,.38-.85L51,51.43a5.77,5.77,0,0,0,.24-1.12.52.52,0,0,0-.2-.38,1.88,1.88,0,0,0-.92-.16Z"/><path class="cls-8" d="M64.82,55.55H63.63V55h1.19L65,52.1l-1.37,1.46V52.8l3.2-3.47h.34l-.34,7.25c0,.38,0,.6,0,.69a.94.94,0,0,0,.2.65,1.06,1.06,0,0,0,.67.24l-.09.23h-4v-.25a1.55,1.55,0,0,0,.54-.09.73.73,0,0,0,.38-.38,2.25,2.25,0,0,0,.2-1Zm-1.19,0H61.78l-.61.67-.69.76a2.67,2.67,0,0,0-.29.42.77.77,0,0,0-.07.32.43.43,0,0,0,.18.29,1.28,1.28,0,0,0,.6.15v.23H58l.06-.23a1.73,1.73,0,0,0,.7-.26,7,7,0,0,0,1.16-1.08l3.71-4v.76L62.29,55h1.34v.56Zm0,2.84v-.25a.56.56,0,0,0-.17,0l-.07.23Z"/><path class="cls-8" d="M75,49.53l3.06,5.91,1.35-4.3a2.61,2.61,0,0,0,.11-.63A.63.63,0,0,0,79.3,50a1.38,1.38,0,0,0-.77-.23l0-.24h3.11l-.07.24a1.86,1.86,0,0,0-1,.3A1.94,1.94,0,0,0,80,51.14L77.62,58.5h-.27l-3.92-7.56-1.9,5.88a1.64,1.64,0,0,0-.09.56.71.71,0,0,0,.25.56,1.33,1.33,0,0,0,.83.22l-.07.23H69.27l.07-.23a2,2,0,0,0,.58-.06,2.52,2.52,0,0,0,.58-.4,2.1,2.1,0,0,0,.47-.88L73,50.38a2.19,2.19,0,0,0-.63-.49,1.79,1.79,0,0,0-.78-.12l.09-.24Z"/><path class="cls-8" d="M92.07,49.33l-.72,2.82h-.29a2.42,2.42,0,0,0-.6-1.73,2.08,2.08,0,0,0-1.5-.56,3.21,3.21,0,0,0-2,.77A5.73,5.73,0,0,0,85.31,53a6.19,6.19,0,0,0-.56,2.55A2.1,2.1,0,0,0,87,57.85a3.58,3.58,0,0,0,1.54-.33A5.39,5.39,0,0,0,90,56.4h.36a5.88,5.88,0,0,1-1.81,1.7,4.61,4.61,0,0,1-2.24.49,4.09,4.09,0,0,1-2.84-1,3.25,3.25,0,0,1-1.07-2.53,5.16,5.16,0,0,1,.85-2.8,6.44,6.44,0,0,1,2.48-2.17,7.11,7.11,0,0,1,3.2-.8,5.94,5.94,0,0,1,1.5.22,2.31,2.31,0,0,0,.65.11,1.05,1.05,0,0,0,.71-.33Z"/><path class="cls-8" d="M98,49.55a5.22,5.22,0,0,1,1.55-.24,3.71,3.71,0,0,1,1.68.4,3.08,3.08,0,0,1,1.23,1.14,2.7,2.7,0,0,1,.44,1.48,5.76,5.76,0,0,1-1.16,3.31,7.07,7.07,0,0,1-2.59,2.41,4.91,4.91,0,0,1-1.15.41V57.7l.09-.09a6.78,6.78,0,0,0,1.82-2.8,9.14,9.14,0,0,0,.69-3.27,1.9,1.9,0,0,0-.38-1.3,1.21,1.21,0,0,0-.92-.4,2.16,2.16,0,0,0-1,.2,2.49,2.49,0,0,0-.34.2ZM96.5,58.61a3.54,3.54,0,0,1-1.9-.45A2.84,2.84,0,0,1,93.5,57a3.54,3.54,0,0,1-.36-1.5,5.43,5.43,0,0,1,.92-2.91,7,7,0,0,1,4-3v.69a2.75,2.75,0,0,0-.49.43,5.55,5.55,0,0,0-.89,1.25,11.66,11.66,0,0,0-.83,2.22,8.53,8.53,0,0,0-.4,2.32,1.72,1.72,0,0,0,.38,1.21,1.31,1.31,0,0,0,1,.41A2.15,2.15,0,0,0,98,57.7v.76A8.12,8.12,0,0,1,96.5,58.61Z"/><path class="cls-9" d="M50.21,49.53h3.85a11.29,11.29,0,0,1,1.86.11,2,2,0,0,1,1.11.63,1.44,1.44,0,0,1,.41,1,1.83,1.83,0,0,1-.32,1,2.68,2.68,0,0,1-.94.8,8.41,8.41,0,0,1-1.94.59,4,4,0,0,1,1.88.89,1.75,1.75,0,0,1,.53,1.25,2.2,2.2,0,0,1-.53,1.35,3,3,0,0,1-1.37,1,11,11,0,0,1-3.13.29H47.55l.09-.23a2.44,2.44,0,0,0,.85-.11.66.66,0,0,0,.4-.31,3.78,3.78,0,0,0,.38-.85L51,51.43a5.77,5.77,0,0,0,.24-1.12.52.52,0,0,0-.2-.38,1.88,1.88,0,0,0-.92-.16l.07-.24Zm2.22,3.91A4,4,0,0,0,54,53.15a2,2,0,0,0,.89-.87,2.33,2.33,0,0,0,.36-1.16,1.1,1.1,0,0,0-.36-.83,1.44,1.44,0,0,0-.94-.31l-.4,0-1.09,3.44Zm-.18.5L51,57.87a4.23,4.23,0,0,0,.54,0,2.62,2.62,0,0,0,2.24-.83,2.78,2.78,0,0,0,.62-1.75,1.19,1.19,0,0,0-.24-.78,1.28,1.28,0,0,0-.61-.47A4.39,4.39,0,0,0,52.25,53.94Z"/><path class="cls-9" d="M64.82,55.55h-3l-.61.67-.69.76a2.67,2.67,0,0,0-.29.42.77.77,0,0,0-.07.32.43.43,0,0,0,.18.29,1.28,1.28,0,0,0,.6.15v.23H58l.06-.23a1.73,1.73,0,0,0,.7-.26,7,7,0,0,0,1.16-1.08l6.91-7.49h.34l-.34,7.25c0,.38,0,.6,0,.69a.94.94,0,0,0,.2.65,1.06,1.06,0,0,0,.67.24l-.09.23h-4.2l.07-.23a2.38,2.38,0,0,0,.71-.11.73.73,0,0,0,.38-.38,2.25,2.25,0,0,0,.2-1l.07-1.12Zm0-.56L65,52.1,62.29,55Z"/><path class="cls-9" d="M75,49.53l3.06,5.91,1.35-4.3a2.61,2.61,0,0,0,.11-.63A.63.63,0,0,0,79.3,50a1.38,1.38,0,0,0-.77-.23l0-.24h3.11l-.07.24a1.86,1.86,0,0,0-1,.3A1.94,1.94,0,0,0,80,51.14L77.62,58.5h-.27l-3.92-7.56-1.9,5.88a1.64,1.64,0,0,0-.09.56.71.71,0,0,0,.25.56,1.33,1.33,0,0,0,.83.22l-.07.23H69.27l.07-.23a2,2,0,0,0,.58-.06,2.52,2.52,0,0,0,.58-.4,2.1,2.1,0,0,0,.47-.88L73,50.38a2.19,2.19,0,0,0-.63-.49,1.79,1.79,0,0,0-.78-.12l.09-.24Z"/><path class="cls-9" d="M92.07,49.33l-.72,2.82h-.29a2.42,2.42,0,0,0-.6-1.73,2.08,2.08,0,0,0-1.5-.56,3.21,3.21,0,0,0-2,.77A5.73,5.73,0,0,0,85.31,53a6.19,6.19,0,0,0-.56,2.55A2.1,2.1,0,0,0,87,57.85a3.58,3.58,0,0,0,1.54-.33A5.39,5.39,0,0,0,90,56.4h.36a5.88,5.88,0,0,1-1.81,1.7,4.61,4.61,0,0,1-2.24.49,4.09,4.09,0,0,1-2.84-1,3.25,3.25,0,0,1-1.07-2.53,5.16,5.16,0,0,1,.85-2.8,6.44,6.44,0,0,1,2.48-2.17,7.11,7.11,0,0,1,3.2-.8,5.94,5.94,0,0,1,1.5.22,2.31,2.31,0,0,0,.65.11,1.05,1.05,0,0,0,.71-.33Z"/><path class="cls-9" d="M96.5,58.61a3.54,3.54,0,0,1-1.9-.45A2.84,2.84,0,0,1,93.5,57a3.54,3.54,0,0,1-.36-1.5,5.43,5.43,0,0,1,.92-2.91,6.82,6.82,0,0,1,2.46-2.37,6.27,6.27,0,0,1,3.07-.89,3.71,3.71,0,0,1,1.68.4,3.08,3.08,0,0,1,1.23,1.14,2.7,2.7,0,0,1,.44,1.48,5.76,5.76,0,0,1-1.16,3.31,7.07,7.07,0,0,1-2.59,2.41,6.11,6.11,0,0,1-2.69.56Zm2.84-8.77a2.16,2.16,0,0,0-1,.2,2.94,2.94,0,0,0-.83.63,5.55,5.55,0,0,0-.89,1.25,11.66,11.66,0,0,0-.83,2.22,8.53,8.53,0,0,0-.4,2.32,1.72,1.72,0,0,0,.38,1.21,1.31,1.31,0,0,0,1,.41,2,2,0,0,0,1.34-.47,6.78,6.78,0,0,0,1.82-2.8,9.14,9.14,0,0,0,.69-3.27,1.9,1.9,0,0,0-.38-1.3A1.21,1.21,0,0,0,99.34,49.84Z"/><path class="cls-10" d="M75.25,36.91C85,36.91,93,28.7,93,18.65S85,.38,75.25.38,57.48,8.59,57.48,18.65,65.47,36.91,75.25,36.91Z"/><path class="cls-7" d="M59.79,27.63c8.07-.36,13-2.17,14.87-5.46,7.48-1.82,12.18,1,14.52,7.76"/><path class="cls-7" d="M75,22.43c-2.24-8-1.3-14.16,2.24-21.92"/><path class="cls-7" d="M65.22,27.09a33.49,33.49,0,0,1,.34-23.76"/><path class="cls-7" d="M74.06,10.76C82.36,8.5,88.22,12,93,18.05"/><path class="cls-7" d="M67.77,35.23C75.6,34,82.05,30.85,86.52,25.07"/></g></g></svg>